<?xml version="1.0" encoding="UTF-8"?>
<svg id="Layer_2" data-name="Layer 2" xmlns="http://www.w3.org/2000/svg" xmlns:xlink="http://www.w3.org/1999/xlink" viewBox="0 0 545.55 426.84">
  <defs>
    <style>
      .cls-1 {
        fill: url(#linear-gradient);
      }

      .cls-2 {
        fill: #d6c23f;
      }

      .cls-3 {
        fill: url(#linear-gradient-3);
      }

      .cls-4 {
        fill: url(#linear-gradient-4);
      }

      .cls-5 {
        fill: url(#linear-gradient-2);
      }
    </style>
    <linearGradient id="linear-gradient" x1="339.24" y1="229.25" x2="186.88" y2="351.14" gradientTransform="translate(0 682.86) scale(1 -1)" gradientUnits="userSpaceOnUse">
      <stop offset="0" stop-color="#f47820"/>
      <stop offset=".05" stop-color="#f58520"/>
      <stop offset=".17" stop-color="#f79e22"/>
      <stop offset=".3" stop-color="#f9b123"/>
      <stop offset=".45" stop-color="#fabe24"/>
      <stop offset=".64" stop-color="#fbc624"/>
      <stop offset="1" stop-color="#fcc925"/>
    </linearGradient>
    <linearGradient id="linear-gradient-2" x1="545.79" y1="487.44" x2="393.43" y2="609.33" xlink:href="#linear-gradient"/>
    <linearGradient id="linear-gradient-3" x1="469.36" y1="368.85" x2="96.59" y2="633.95" gradientTransform="translate(0 682.86) scale(1 -1)" gradientUnits="userSpaceOnUse">
      <stop offset="0" stop-color="#fcc925"/>
      <stop offset=".36" stop-color="#fbc624"/>
      <stop offset=".55" stop-color="#fabe24"/>
      <stop offset=".7" stop-color="#f9b123"/>
      <stop offset=".83" stop-color="#f79e22"/>
      <stop offset=".95" stop-color="#f58520"/>
      <stop offset="1" stop-color="#f47820"/>
    </linearGradient>
    <linearGradient id="linear-gradient-4" x1="388.72" y1="482.36" x2="338.44" y2="672.05" gradientTransform="translate(0 682.86) scale(1 -1)" gradientUnits="userSpaceOnUse">
      <stop offset="0" stop-color="#8d509f"/>
      <stop offset=".05" stop-color="#864c9b"/>
      <stop offset=".28" stop-color="#6b3d8d"/>
      <stop offset=".52" stop-color="#573283"/>
      <stop offset=".76" stop-color="#4b2c7d"/>
      <stop offset="1" stop-color="#482a7c"/>
    </linearGradient>
  </defs>
  <g id="Layer_2-2" data-name="Layer 2">
    <g>
      <path class="cls-1" d="m0,283.46v135.53c223.02,38.21,372.69-72.37,429.66-129.81-19.88-3.31-56.37-8.08-76.79-14.09C265.6,364.48,5.39,287.48,0,283.46h0Z"/>
      <path class="cls-5" d="m524.66,36.6c-3.55-1.95-7.16-3.79-10.83-5.44-11.06-5.03-22.78-8.58-34.84-10.59,8.99,99.85-61.23,190.01-75.36,205.51-1.83-.18,55.84,7.99,70.4,7.93l7.45-11.71c3.55-5.8,7.16-12.01,10.77-18.69,1.01-1.89,2.01-3.85,3.08-5.86,3.43-6.57,6.92-13.61,10.29-21.12,2.72-5.97,5.44-12.24,8.1-18.87.35-.77.65-1.6,1.01-2.43.36-.89.71-1.83,1.12-2.78v-.06c.12-.18.12-.35.18-.53.59-1.48,1.18-3.02,1.77-4.55,1.01-2.72,2.07-5.44,3.08-8.28,1.01-2.78,2.01-5.68,3.02-8.58,5.38-15.56,10.41-32.48,15.09-50.99,1.12-4.61,2.25-9.29,3.37-14.08,1.07-4.79,2.13-9.7,3.19-14.67-6.57-5.38-13.55-10.12-20.88-14.2h-.01Z"/>
      <path class="cls-2" d="m291.58,254.41c1.36.53,2.66,1.12,4.02,1.6-2.66-1.06-5.32-2.19-8.04-3.31,1.36.65,2.66,1.18,4.02,1.72h0Z"/>
      <path class="cls-3" d="m403.7,225.99c-5.91-.82-9.71-1.38-9.78-1.39-22.95-4.08-75.36-17.04-123.28-47.27-21.41-13.55-42-30.47-58.62-51.64-15.26,19.94-24.9,43.66-27.98,68.5,3.14,2.37,6.33,4.73,9.52,6.98,3.19,2.31,6.39,4.56,9.64,6.68,3.67,2.48,7.34,4.85,11,7.16,2.84,1.77,5.68,3.55,8.58,5.26,3.25,1.95,6.57,3.9,9.88,5.74,7.22,4.08,14.37,7.93,21.53,11.48,2.54,1.24,5.03,2.48,7.51,3.67,2.37,1.12,4.73,2.25,7.1,3.31,2.78,1.3,5.62,2.6,8.4,3.79,1.01.47,2.07.95,3.02,1.3,2.48,1.06,4.91,2.13,7.34,3.14,2.72,1.12,5.38,2.25,8.04,3.31,3.91,1.48,7.75,2.96,11.54,4.38,2.6,1.01,5.26,1.95,7.87,2.84,7.45,2.66,14.73,5.03,21.77,7.22.35.12.65.24,1.01.35,1.06.35,2.13.65,3.19.95.47.18.95.3,1.42.41,1.83.53,3.61,1.06,5.38,1.54.53.18,1.01.3,1.48.41,25.91,7.1,50.87,11.71,73.47,14.67.18,0,.36.06.53.06,2.42.24,4.56.3,6.33.35h.06l.71-.77c4.2-4.97,11.12-12.07,19.58-22.24h.06c.06-.06.18-.18.24-.3.77-.89,1.54-1.83,2.31-2.84,1.78-2.13,3.55-4.44,5.44-6.8l3.14-4.02c1.77-2.43,3.61-4.91,5.5-7.51l7.39-10.71c-11.08.05-51.5-5.39-70.32-8.02h0Z"/>
      <path class="cls-4" d="m361.16,65.72c-3.47-3.48-24.59-21.57-56.76-22.51-97.02,3.81-45.08,121.66,83.38,129.68,130.25-130.33,31.38-235.93-44.95-128.72,4.48-3.47,28.36-24.13,59.45-14.5,36.09,17,10.37,80.58-24.66,111.67-56.33-4-91.51-36.02-89.52-54.54,1.92-14.39,23.85-37.73,73.07-21.09h-.01Z"/>
    </g>
  </g>
</svg>