<?xml version="1.0" encoding="UTF-8"?>
<svg id="Layer_2" data-name="Layer 2" xmlns="http://www.w3.org/2000/svg" xmlns:xlink="http://www.w3.org/1999/xlink" viewBox="0 0 1008.34 722.22">
  <defs>
    <style>
      .cls-1 {
        fill: #d6c23f;
      }

      .cls-2 {
        fill: #642e91;
      }

      .cls-3 {
        fill: url(#Degradado_sin_nombre_11);
      }

      .cls-4 {
        fill: url(#Degradado_sin_nombre_13);
      }

      .cls-5 {
        fill: url(#Degradado_sin_nombre_12);
      }

      .cls-6 {
        fill: url(#Degradado_sin_nombre_12-2);
      }
    </style>
    <linearGradient id="Degradado_sin_nombre_12" data-name="Degradado sin nombre 12" x1="618.61" y1="453.61" x2="466.25" y2="331.72" gradientUnits="userSpaceOnUse">
      <stop offset="0" stop-color="#f47820"/>
      <stop offset=".05" stop-color="#f58520"/>
      <stop offset=".17" stop-color="#f79e22"/>
      <stop offset=".3" stop-color="#f9b123"/>
      <stop offset=".45" stop-color="#fabe24"/>
      <stop offset=".64" stop-color="#fbc624"/>
      <stop offset="1" stop-color="#fcc925"/>
    </linearGradient>
    <linearGradient id="Degradado_sin_nombre_12-2" data-name="Degradado sin nombre 12" x1="825.16" y1="195.42" x2="672.8" y2="73.53" xlink:href="#Degradado_sin_nombre_12"/>
    <linearGradient id="Degradado_sin_nombre_13" data-name="Degradado sin nombre 13" x1="748.73" y1="314.01" x2="375.96" y2="48.91" gradientUnits="userSpaceOnUse">
      <stop offset="0" stop-color="#fcc925"/>
      <stop offset=".36" stop-color="#fbc624"/>
      <stop offset=".55" stop-color="#fabe24"/>
      <stop offset=".7" stop-color="#f9b123"/>
      <stop offset=".83" stop-color="#f79e22"/>
      <stop offset=".95" stop-color="#f58520"/>
      <stop offset="1" stop-color="#f47820"/>
    </linearGradient>
    <linearGradient id="Degradado_sin_nombre_11" data-name="Degradado sin nombre 11" x1="668.09" y1="200.5" x2="617.81" y2="10.81" gradientUnits="userSpaceOnUse">
      <stop offset="0" stop-color="#8d509f"/>
      <stop offset=".05" stop-color="#864c9b"/>
      <stop offset=".28" stop-color="#6b3d8d"/>
      <stop offset=".52" stop-color="#573283"/>
      <stop offset=".76" stop-color="#4b2c7d"/>
      <stop offset="1" stop-color="#482a7c"/>
    </linearGradient>
  </defs>
  <g id="Layer_1-2" data-name="Layer 1">
    <g>
      <path class="cls-2" d="m97.97,668.35c-4.68,8.17-9.53,15.59-14.54,22.25-5.01,6.66-10.45,12.33-16.33,17.02-5.88,4.68-12.38,8.29-19.5,10.82-7.12,2.53-15.18,3.79-24.18,3.79-3.12,0-6.87-.3-11.23-.9-4.36-.6-8.43-1.58-12.19-2.96l7.44-33.62c1.93,1.38,4.32,2.43,7.16,3.17,2.85.73,5.7,1.1,8.54,1.1,5.42,0,10.47-1.26,15.16-3.79,4.68-2.53,8.77-6.64,12.26-12.33l11.3-17.77-27.42-140.27h45.75l9.92,85.84c.28,3.12.46,6.48.55,10.06.09,3.58,0,6.52-.28,8.82h.55c.83-2.29,1.88-5.14,3.17-8.54,1.29-3.4,2.85-6.84,4.68-10.33l43.13-85.84h45.75l-89.7,153.5Z"/>
      <path class="cls-2" d="m317.74,609.37c-.64,2.85-1.26,6.29-1.86,10.33-.6,4.04-1.15,8.25-1.65,12.61-.51,4.36-.92,8.64-1.24,12.81-.32,4.18-.48,7.79-.48,10.82h-44.09c0-1.38.07-3.15.21-5.3.14-2.16.3-4.36.48-6.61.18-2.25.39-4.45.62-6.61.23-2.16.43-3.97.62-5.44h-.55c-2.67,3.58-5.42,7.03-8.27,10.33-2.85,3.31-6.02,6.22-9.51,8.75-3.49,2.53-7.37,4.55-11.64,6.06-4.27,1.52-9.21,2.27-14.81,2.27-6.89,0-13.02-1.24-18.39-3.72-5.37-2.48-9.9-6.06-13.57-10.75-3.68-4.68-6.48-10.4-8.41-17.15-1.93-6.75-2.89-14.4-2.89-22.94,0-4.32.48-9.62,1.45-15.91.97-6.29,2.71-12.9,5.24-19.84,2.53-6.93,6.04-13.82,10.54-20.67,4.5-6.84,10.27-13.02,17.29-18.53,7.03-5.51,15.52-9.97,25.49-13.37,9.97-3.4,21.7-5.1,35.2-5.1,5.24,0,10.49.21,15.78.62,5.28.41,10.47.96,15.57,1.65,5.1.69,10.04,1.49,14.81,2.41,4.78.92,9.23,1.84,13.37,2.76l-19.29,90.53Zm-36.65-67.03c-2.57-.23-5.01-.34-7.3-.34-6.34,0-11.9,1.06-16.67,3.17-4.78,2.11-8.93,4.87-12.47,8.27-3.54,3.4-6.5,7.26-8.89,11.57-2.39,4.32-4.3,8.7-5.72,13.16-1.43,4.46-2.43,8.8-3.03,13.02-.6,4.23-.9,7.95-.9,11.16,0,3.4.34,6.55,1.03,9.44.69,2.89,1.77,5.4,3.24,7.51,1.47,2.11,3.28,3.77,5.44,4.96,2.16,1.19,4.66,1.79,7.51,1.79,5.24,0,9.9-1.52,13.99-4.55,4.09-3.03,7.67-6.91,10.75-11.64,3.08-4.73,5.65-10.06,7.72-15.98,2.07-5.92,3.74-11.78,5.03-17.57l7.3-32.93c-2.11-.46-4.46-.8-7.03-1.03Z"/>
      <path class="cls-2" d="m455.67,554.95h-.28c-1.93-1.01-4.39-1.93-7.37-2.76-2.99-.83-5.77-1.24-8.34-1.24-5.42,0-10.29,1.22-14.61,3.65-4.32,2.43-8.13,5.72-11.44,9.85-3.31,4.13-6.09,8.98-8.34,14.54-2.25,5.56-4.06,11.46-5.44,17.71l-12.4,59.25h-44.09l19.29-89.98c.92-4.32,1.81-8.77,2.69-13.37.87-4.59,1.7-9.12,2.48-13.57.78-4.46,1.47-8.75,2.07-12.88.6-4.13,1.08-7.9,1.45-11.3h43.13c-.28,2.67-.58,5.42-.9,8.27-.32,2.85-.64,5.58-.96,8.2-.32,2.62-.64,4.98-.96,7.1-.32,2.11-.58,3.77-.76,4.96h.55c5.69-10.56,11.69-18.53,17.98-23.91,6.29-5.37,13.57-8.06,21.84-8.06,2.39,0,4.73.23,7.03.69,2.3.46,4.36.83,6.2,1.1l-8.82,41.75Z"/>
      <path class="cls-2" d="m570.31,546.95h-32.93l-11.3,52.77c-.19,1.19-.41,2.48-.69,3.86-.27,1.38-.53,2.76-.76,4.13-.23,1.38-.44,2.69-.62,3.93-.19,1.24-.28,2.27-.28,3.1,0,3.67.92,6.38,2.76,8.13,1.84,1.75,4.87,2.62,9.09,2.62,1.1,0,2.5-.14,4.2-.41,1.7-.28,3.44-.64,5.24-1.1,1.79-.46,3.51-.94,5.17-1.45,1.65-.5,2.98-.94,4-1.31l-6.75,32.24c-1.65.64-3.68,1.29-6.06,1.93-2.39.64-5.01,1.24-7.85,1.79-2.85.55-5.81,1.01-8.89,1.38-3.08.37-6.09.55-9.03.55-6.98,0-12.81-.9-17.5-2.69-4.68-1.79-8.43-4.27-11.23-7.44-2.8-3.17-4.78-6.87-5.92-11.09-1.15-4.22-1.72-8.82-1.72-13.78,0-1.47.09-3.17.28-5.1.18-1.93.44-3.9.76-5.92.32-2.02.69-4.06,1.1-6.13.41-2.07.8-3.97,1.17-5.72l11.3-54.29h-21.77l7.72-32.1h20.81l7.16-33.07,45.88-11.3-9.23,44.37h33.48l-7.58,32.1Z"/>
      <path class="cls-2" d="m713.47,551.23c0,7.26-1.54,13.92-4.62,19.98-3.08,6.06-8.22,11.3-15.43,15.71-7.21,4.41-16.79,7.88-28.73,10.4-11.94,2.53-26.82,3.93-44.64,4.2-.18.55-.27,1.03-.27,1.45v1.31c0,2.85.46,5.7,1.38,8.54.92,2.85,2.5,5.42,4.75,7.72,2.25,2.3,5.21,4.16,8.89,5.58,3.67,1.43,8.27,2.14,13.78,2.14,3.31,0,6.91-.3,10.82-.9,3.9-.6,7.88-1.47,11.92-2.62,4.04-1.15,8.06-2.53,12.06-4.13,4-1.61,7.69-3.38,11.09-5.31l-6.75,32.52c-2.85,1.47-6.11,2.89-9.78,4.27-3.68,1.38-7.65,2.62-11.92,3.72-4.27,1.1-8.82,1.97-13.64,2.62-4.82.64-9.76.97-14.81.97-10.66,0-19.8-1.56-27.42-4.68-7.63-3.12-13.89-7.32-18.81-12.61-4.92-5.28-8.52-11.46-10.82-18.53-2.3-7.07-3.45-14.61-3.45-22.6,0-12.03,2-23.47,5.99-34.31,4-10.84,9.69-20.34,17.09-28.52,7.39-8.17,16.3-14.67,26.73-19.5,10.42-4.82,22.07-7.23,34.93-7.23,9.28,0,17.18,1.1,23.7,3.31,6.52,2.2,11.85,5.17,15.98,8.89,4.13,3.72,7.16,7.97,9.09,12.74,1.93,4.78,2.89,9.74,2.89,14.88Zm-41.47.55c0-3.4-1.26-6.22-3.79-8.47-2.53-2.25-6.09-3.38-10.68-3.38-4.04,0-7.92.87-11.64,2.62-3.72,1.75-7.12,4.16-10.2,7.23-3.08,3.08-5.72,6.75-7.92,11.02-2.2,4.27-3.86,8.89-4.96,13.85,16.53.18,28.87-1.7,37-5.65,8.13-3.95,12.19-9.69,12.19-17.22Z"/>
      <path class="cls-2" d="m860.22,551.23c0,7.26-1.54,13.92-4.62,19.98-3.08,6.06-8.22,11.3-15.43,15.71-7.21,4.41-16.79,7.88-28.73,10.4-11.94,2.53-26.82,3.93-44.64,4.2-.18.55-.27,1.03-.27,1.45v1.31c0,2.85.46,5.7,1.38,8.54.92,2.85,2.5,5.42,4.75,7.72,2.25,2.3,5.21,4.16,8.89,5.58,3.67,1.43,8.27,2.14,13.78,2.14,3.31,0,6.91-.3,10.82-.9,3.9-.6,7.88-1.47,11.92-2.62,4.04-1.15,8.06-2.53,12.06-4.13,4-1.61,7.69-3.38,11.09-5.31l-6.75,32.52c-2.85,1.47-6.11,2.89-9.78,4.27-3.68,1.38-7.65,2.62-11.92,3.72-4.27,1.1-8.82,1.97-13.64,2.62-4.82.64-9.76.97-14.81.97-10.66,0-19.8-1.56-27.42-4.68-7.63-3.12-13.89-7.32-18.81-12.61-4.92-5.28-8.52-11.46-10.82-18.53-2.3-7.07-3.45-14.61-3.45-22.6,0-12.03,2-23.47,5.99-34.31,4-10.84,9.69-20.34,17.09-28.52,7.39-8.17,16.3-14.67,26.73-19.5,10.42-4.82,22.07-7.23,34.93-7.23,9.28,0,17.18,1.1,23.7,3.31,6.52,2.2,11.85,5.17,15.98,8.89,4.13,3.72,7.16,7.97,9.09,12.74,1.93,4.78,2.89,9.74,2.89,14.88Zm-41.47.55c0-3.4-1.26-6.22-3.79-8.47-2.53-2.25-6.09-3.38-10.68-3.38-4.04,0-7.92.87-11.64,2.62-3.72,1.75-7.12,4.16-10.2,7.23-3.08,3.08-5.72,6.75-7.92,11.02-2.2,4.27-3.86,8.89-4.96,13.85,16.53.18,28.87-1.7,37-5.65,8.13-3.95,12.19-9.69,12.19-17.22Z"/>
      <path class="cls-2" d="m1003.52,536.9l-83.5,86.95h65.45l-6.75,32.1h-128.14l3.72-18.33,88.87-90.67h-62.42l6.75-32.1h120.84l-4.82,22.05Z"/>
    </g>
    <g>
      <path class="cls-5" d="m279.37,283.46v135.53c223.02,38.21,372.69-72.37,429.66-129.81-19.88-3.31-56.37-8.08-76.79-14.09-87.27,89.39-347.48,12.39-352.87,8.37Z"/>
      <path class="cls-6" d="m804.03,36.6c-3.55-1.95-7.16-3.79-10.83-5.44-11.06-5.03-22.78-8.58-34.84-10.59,8.99,99.85-61.23,190.01-75.36,205.51-1.83-.18,55.84,7.99,70.4,7.93l7.45-11.71c3.55-5.8,7.16-12.01,10.77-18.69,1.01-1.89,2.01-3.85,3.08-5.86,3.43-6.57,6.92-13.61,10.29-21.12,2.72-5.97,5.44-12.24,8.1-18.87.35-.77.65-1.6,1.01-2.43.36-.89.71-1.83,1.12-2.78v-.06c.12-.18.12-.35.18-.53.59-1.48,1.18-3.02,1.77-4.55,1.01-2.72,2.07-5.44,3.08-8.28,1.01-2.78,2.01-5.68,3.02-8.58,5.38-15.56,10.41-32.48,15.09-50.99,1.12-4.61,2.25-9.29,3.37-14.08,1.07-4.79,2.13-9.7,3.19-14.67-6.57-5.38-13.55-10.12-20.88-14.2Z"/>
      <path class="cls-1" d="m570.95,254.41c1.36.53,2.66,1.12,4.02,1.6-2.66-1.06-5.32-2.19-8.04-3.31,1.36.65,2.66,1.18,4.02,1.72Z"/>
      <path class="cls-4" d="m683.07,225.99c-5.91-.82-9.71-1.38-9.78-1.39-22.95-4.08-75.36-17.04-123.28-47.27-21.41-13.55-42-30.47-58.62-51.64-15.26,19.94-24.9,43.66-27.98,68.5,3.14,2.37,6.33,4.73,9.52,6.98,3.19,2.31,6.39,4.56,9.64,6.68,3.67,2.48,7.34,4.85,11,7.16,2.84,1.77,5.68,3.55,8.58,5.26,3.25,1.95,6.57,3.9,9.88,5.74,7.22,4.08,14.37,7.93,21.53,11.48,2.54,1.24,5.03,2.48,7.51,3.67,2.37,1.12,4.73,2.25,7.1,3.31,2.78,1.3,5.62,2.6,8.4,3.79,1.01.47,2.07.95,3.02,1.3,2.48,1.06,4.91,2.13,7.34,3.14,2.72,1.12,5.38,2.25,8.04,3.31,3.91,1.48,7.75,2.96,11.54,4.38,2.6,1.01,5.26,1.95,7.87,2.84,7.45,2.66,14.73,5.03,21.77,7.22.35.12.65.24,1.01.35,1.06.35,2.13.65,3.19.95.47.18.95.3,1.42.41,1.83.53,3.61,1.06,5.38,1.54.53.18,1.01.3,1.48.41,25.91,7.1,50.87,11.71,73.47,14.67.18,0,.36.06.53.06,2.42.24,4.56.3,6.33.35h.06l.71-.77c4.2-4.97,11.12-12.07,19.58-22.24h.06c.06-.06.18-.18.24-.3.77-.89,1.54-1.83,2.31-2.84,1.78-2.13,3.55-4.44,5.44-6.8l3.14-4.02c1.77-2.43,3.61-4.91,5.5-7.51l7.39-10.71c-11.08.05-51.5-5.39-70.32-8.02Z"/>
      <path class="cls-3" d="m640.53,65.72c-3.47-3.48-24.59-21.57-56.76-22.51-97.02,3.81-45.08,121.66,83.38,129.68,130.25-130.33,31.38-235.93-44.95-128.72,4.48-3.47,28.36-24.13,59.45-14.5,36.09,17,10.37,80.58-24.66,111.67-56.33-4-91.51-36.02-89.52-54.54,1.92-14.39,23.85-37.73,73.07-21.09Z"/>
    </g>
  </g>
</svg>